<?xml version="1.0" standalone="no"?>
<!DOCTYPE svg PUBLIC "-//W3C//DTD SVG 20010904//EN"
 "http://www.w3.org/TR/2001/REC-SVG-20010904/DTD/svg10.dtd">
<svg version="1.0" xmlns="http://www.w3.org/2000/svg"
 width="260.000000pt" height="260.000000pt" viewBox="0 0 260.000000 260.000000"
 preserveAspectRatio="xMidYMid meet">
<metadata>
Created by potrace 1.14, written by Peter Selinger 2001-2017
</metadata>
<g transform="translate(0.000000,260.000000) scale(0.100000,-0.100000)"
fill="#000000" stroke="none">
<path d="M1177 2591 c6 -3 9 -16 8 -28 -1 -17 2 -20 11 -13 8 8 13 6 18 -5 3
-9 2 -14 -3 -10 -14 8 -42 -6 -34 -18 3 -6 1 -7 -6 -3 -6 4 -9 12 -6 17 3 5
-2 6 -11 2 -13 -5 -15 -3 -9 7 5 8 4 11 -2 7 -5 -3 -8 -20 -7 -36 1 -20 -2
-29 -9 -24 -7 4 -8 0 -3 -13 6 -15 5 -16 -5 -7 -9 9 -9 15 0 26 9 12 8 16 -4
21 -9 3 -13 2 -10 -4 3 -5 -1 -23 -10 -40 -9 -17 -13 -35 -10 -40 3 -5 0 -12
-6 -16 -8 -4 -9 -3 -5 4 4 7 2 12 -4 12 -7 0 -9 7 -6 17 4 10 4 14 0 10 -4 -4
-14 -1 -23 6 -14 10 -14 10 -5 -3 18 -24 23 -57 9 -57 -7 0 -11 7 -8 16 2 9
-1 7 -8 -4 -7 -11 -14 -29 -15 -40 -1 -11 -3 -22 -3 -24 -1 -2 -8 2 -17 10
-13 10 -17 10 -24 -1 -5 -8 -6 -18 -4 -22 3 -4 0 -8 -5 -8 -10 0 -15 14 -12
33 1 5 -3 5 -9 2 -8 -5 -6 -14 4 -29 10 -16 11 -27 4 -37 -8 -11 -9 -10 -4 4
4 14 2 16 -12 9 -9 -5 -23 -8 -30 -6 -7 1 -8 0 -2 -3 8 -3 7 -9 -1 -19 -6 -7
-9 -20 -6 -27 3 -7 -1 -21 -9 -32 -8 -10 -14 -14 -14 -9 0 6 6 16 12 22 10 10
7 12 -12 8 -14 -2 -29 -5 -33 -5 -5 -1 -1 -8 7 -17 9 -8 16 -23 15 -32 0 -14
-2 -14 -8 2 -7 19 -8 19 -16 0 -4 -10 -7 -22 -7 -27 1 -4 -4 -6 -10 -5 -7 2
-12 -3 -10 -10 1 -8 -2 -11 -9 -7 -7 5 -3 16 13 33 13 15 15 21 6 13 -9 -7
-22 -10 -27 -6 -7 4 -8 -1 -4 -11 4 -10 2 -15 -4 -11 -5 3 -10 0 -10 -8 0 -8
4 -12 8 -10 3 3 9 -4 12 -16 5 -17 3 -18 -11 -7 -9 7 -14 8 -10 4 4 -5 3 -15
-4 -23 -8 -11 -7 -12 5 -8 8 4 18 1 23 -6 4 -8 3 -10 -4 -5 -7 4 -12 2 -12 -4
0 -6 -5 -8 -12 -4 -7 4 -8 3 -4 -5 4 -6 13 -8 19 -4 7 4 5 -2 -3 -12 -11 -14
-11 -17 -1 -11 10 7 12 3 6 -13 -4 -14 -1 -23 9 -27 9 -3 16 -10 16 -16 0 -5
-4 -7 -9 -3 -5 3 -13 0 -17 -6 -4 -7 -3 -9 4 -5 6 3 14 0 19 -8 7 -12 10 -12
23 2 13 14 12 15 -3 9 -11 -4 -16 -3 -12 3 7 12 35 13 35 2 0 -4 -6 -14 -12
-21 -11 -11 -10 -13 3 -8 13 4 15 0 11 -21 -4 -26 -4 -26 11 -7 16 20 16 20
10 -3 -4 -18 -2 -21 13 -16 17 5 17 4 -1 -11 -20 -17 -20 -17 2 -11 18 6 21 4
18 -13 -5 -25 -2 -26 16 -4 12 14 12 16 0 8 -10 -5 -12 -4 -7 3 10 17 23 15
30 -4 3 -8 2 -12 -4 -9 -17 10 -11 -11 9 -33 24 -28 31 -28 24 1 -3 12 -3 19
1 16 4 -4 9 -20 10 -35 2 -16 4 -33 5 -38 0 -5 11 -1 23 10 l22 19 -18 -28
c-17 -28 -17 -28 4 -17 13 7 20 8 16 2 -3 -6 -2 -14 4 -17 8 -5 8 -11 0 -20
-16 -19 -21 -55 -7 -52 6 1 12 -8 13 -20 1 -12 -3 -20 -8 -17 -4 3 -6 9 -4 13
3 4 0 8 -7 8 -7 0 -13 -8 -13 -18 0 -10 3 -16 6 -14 3 1 12 -4 20 -13 13 -14
12 -15 -4 -9 -14 5 -17 3 -12 -8 3 -9 -3 -19 -16 -26 -13 -7 -18 -7 -14 -1 3
6 2 13 -3 17 -6 3 -8 13 -5 23 5 14 4 14 -4 3 -6 -8 -8 -19 -6 -25 5 -15 -13
-42 -23 -33 -4 5 -1 12 7 17 10 6 6 8 -15 6 -16 -2 -31 -9 -33 -17 -3 -11 -2
-12 6 -1 8 11 10 11 15 -1 4 -10 0 -14 -11 -12 -9 2 -21 4 -26 4 -4 1 -5 9 -2
18 6 15 4 15 -14 -2 -11 -10 -23 -15 -27 -12 -3 4 0 7 8 7 11 0 11 2 -1 10
-19 12 -33 13 -25 1 3 -5 2 -12 -3 -15 -13 -8 -11 28 2 37 7 6 4 7 -6 3 -20
-6 -25 10 -5 17 6 3 2 4 -10 4 -18 -1 -20 -4 -11 -20 7 -14 6 -22 -3 -31 -9
-8 -10 -8 -5 2 4 7 1 24 -8 37 -11 17 -13 26 -4 31 7 4 8 3 4 -4 -5 -8 -1 -10
9 -5 13 4 14 8 4 14 -7 4 -17 5 -21 3 -8 -5 -12 9 -9 36 1 9 -1 11 -6 5 -4 -5
-19 -11 -33 -13 l-25 -2 25 15 25 16 -24 -7 c-16 -4 -21 -3 -17 5 5 7 1 8 -10
4 -14 -5 -15 -3 -5 16 9 17 9 21 -1 19 -6 -2 -12 2 -13 9 0 6 -3 14 -7 18 -8
9 -5 -16 5 -32 4 -6 3 -15 -3 -18 -6 -4 -9 -1 -8 7 2 7 -3 12 -11 10 -8 -2
-11 3 -8 12 4 9 -3 16 -19 20 -13 4 -24 11 -24 16 0 5 6 7 14 4 8 -3 17 0 22
7 4 8 3 10 -5 5 -6 -4 -19 -2 -28 6 -12 9 -15 9 -9 1 4 -7 3 -13 -3 -13 -5 0
-12 8 -16 19 -4 14 -14 18 -38 16 -18 -2 -37 1 -44 6 -7 7 -14 6 -19 -2 -4 -8
-3 -9 4 -5 7 4 12 2 12 -3 0 -6 -7 -11 -16 -11 -9 0 -12 -5 -8 -12 6 -10 4
-10 -8 0 -13 10 -17 10 -21 0 -2 -8 -8 -9 -13 -4 -5 5 -4 11 4 13 14 5 16 23
3 23 -5 0 -13 -9 -16 -20 -4 -11 -11 -17 -17 -14 -7 4 -8 2 -4 -5 4 -6 11 -9
15 -7 4 3 7 -6 7 -19 0 -13 -4 -21 -8 -19 -5 3 -6 9 -3 14 6 9 -20 21 -29 13
-3 -4 -6 -11 -6 -17 0 -6 5 -4 11 4 9 12 10 12 5 -3 -3 -10 -6 -21 -6 -23 0
-3 -6 1 -14 8 -8 7 -12 16 -9 20 2 4 -3 5 -13 1 -15 -5 -15 -7 0 -15 9 -5 16
-17 15 -26 0 -10 -3 -12 -6 -4 -2 6 -9 12 -15 12 -6 0 -8 -7 -4 -15 5 -15 -8
-20 -44 -16 -13 2 -13 1 0 -8 12 -8 12 -13 0 -35 -7 -14 -15 -24 -17 -22 -3 2
1 15 8 28 11 21 11 22 -4 9 -10 -7 -17 -21 -17 -31 0 -10 -7 -21 -16 -24 -13
-5 -14 -4 -6 7 9 10 8 18 -2 32 -13 18 -13 17 -11 -8 2 -15 -2 -27 -8 -27 -6
0 -3 -6 7 -13 14 -11 16 -18 9 -31 -9 -17 -11 -17 -16 -2 -5 11 -3 15 5 10 7
-4 8 -3 4 4 -9 16 -34 4 -32 -15 0 -9 -6 -18 -14 -20 -13 -4 -13 -3 0 6 11 8
12 11 2 11 -8 0 -10 5 -6 13 4 7 3 9 -2 4 -5 -5 -9 -12 -9 -15 0 -14 -36 -82
-43 -82 -5 0 -13 5 -19 11 -8 8 -13 7 -18 -2 -5 -7 -4 -10 1 -6 6 3 16 -3 22
-14 12 -19 11 -19 -9 -9 -20 11 -21 10 -17 -18 3 -22 1 -29 -9 -25 -7 3 -11 9
-8 13 3 5 1 11 -4 14 -6 4 -8 -9 -6 -31 2 -21 1 -32 -1 -25 -10 21 -26 13 -20
-10 3 -13 3 -17 0 -10 -4 9 -10 10 -18 3 -9 -8 -13 -7 -13 4 0 8 3 12 7 10 3
-2 11 4 17 14 9 14 8 18 -3 18 -7 0 -11 -4 -9 -8 3 -4 -2 -9 -10 -13 -12 -4
-15 -25 -15 -99 0 -82 3 -97 23 -125 19 -25 26 -29 37 -19 10 10 12 8 6 -8 -6
-15 -4 -17 5 -8 15 15 3 34 -17 26 -14 -5 -14 -3 -2 16 10 17 14 18 16 6 2 -8
7 -13 11 -11 4 3 8 -9 9 -25 1 -16 -2 -29 -6 -29 -5 0 -9 -7 -9 -15 0 -12 5
-11 19 5 15 16 23 18 39 9 14 -7 18 -16 14 -27 -12 -31 -10 -35 15 -36 30 -1
50 -13 50 -29 0 -7 -4 -6 -10 3 -5 8 -10 11 -10 6 0 -5 -6 -3 -13 3 -10 8 -14
7 -14 -4 0 -7 3 -14 6 -13 20 2 31 -4 25 -13 -5 -8 -1 -8 14 0 25 13 43 14 22
1 -8 -5 -16 -18 -16 -29 -1 -11 2 -18 6 -16 4 3 13 -2 20 -10 7 -8 23 -13 36
-11 33 6 49 -17 27 -39 -16 -17 -16 -17 6 -10 16 5 21 4 17 -4 -5 -7 -1 -9 9
-5 11 5 14 2 8 -12 -5 -13 -3 -16 10 -11 9 3 17 2 17 -4 0 -6 5 -7 10 -4 6 3
10 1 10 -5 0 -6 4 -8 10 -5 6 4 7 -1 3 -12 -6 -16 -5 -17 13 -3 15 11 16 11 6
0 -17 -19 -15 -35 2 -21 11 9 16 9 22 0 4 -7 3 -9 -3 -6 -6 4 -14 0 -17 -9 -3
-8 -2 -13 3 -10 12 8 33 -19 23 -30 -4 -4 0 -3 9 4 9 7 21 12 25 11 5 -1 12 0
17 1 4 1 12 4 17 5 6 1 11 4 13 5 7 6 56 6 52 -1 -12 -18 27 0 41 19 9 13 20
19 27 15 7 -4 4 6 -7 21 -10 17 -13 25 -5 20 8 -4 25 -8 39 -8 19 0 24 5 22
19 -3 17 -2 17 15 5 17 -14 17 -14 2 5 -17 20 -15 45 2 45 6 0 7 -4 4 -10 -3
-5 -1 -10 5 -10 6 0 8 -5 4 -12 -4 -7 -3 -8 4 -4 6 4 8 14 5 24 -3 9 -3 14 2
10 15 -14 35 12 25 32 -8 15 -6 17 10 13 16 -4 19 -2 14 12 -8 21 15 38 32 24
8 -7 15 -6 20 2 4 8 3 9 -4 5 -7 -4 -12 -3 -12 3 0 5 5 11 10 13 6 2 12 14 15
27 2 13 7 26 11 30 4 3 5 -1 2 -9 -3 -8 1 -21 9 -29 13 -12 14 -11 8 10 -8 24
-7 24 13 6 15 -14 22 -15 28 -6 4 7 3 10 -3 6 -6 -4 -19 3 -29 15 -11 12 -13
18 -5 13 10 -6 12 -2 6 16 -7 23 -7 23 8 4 8 -11 13 -24 9 -30 -3 -5 4 -2 16
9 12 10 19 23 16 27 -3 5 0 10 5 10 6 1 17 2 24 3 6 0 12 6 12 12 0 19 63 66
68 52 3 -7 5 -2 4 12 -1 15 3 24 10 23 15 -3 8 38 -9 49 -7 4 -8 8 -2 8 5 0
16 -6 23 -12 11 -11 13 -10 8 4 -4 12 -2 15 8 11 8 -3 12 -10 8 -16 -3 -6 -1
-7 6 -3 9 6 9 11 -1 24 -9 11 -9 14 -1 8 7 -4 20 2 30 13 9 11 20 18 25 15 4
-3 17 -7 27 -9 15 -3 19 2 16 21 -3 28 10 32 24 7 6 -10 11 -12 11 -6 0 15 21
13 33 -2 5 -6 7 -4 4 5 -2 8 -13 14 -25 14 -14 -1 -19 3 -14 14 4 12 7 13 10
3 4 -11 6 -11 13 0 6 10 9 11 9 2 0 -7 4 -13 10 -13 5 0 7 8 3 18 -5 14 -3 13
10 -3 14 -17 18 -18 27 -5 8 12 10 12 10 1 0 -10 3 -11 13 -2 10 8 14 7 14 -3
0 -8 -8 -13 -18 -11 -10 2 -21 1 -23 -3 -2 -4 9 -8 25 -8 19 -1 29 3 29 12 0
8 4 14 10 14 5 0 7 -7 4 -15 -4 -11 5 -20 30 -30 20 -8 36 -18 36 -21 0 -3 -4
-2 -10 1 -5 3 -10 1 -10 -4 0 -15 16 -14 33 3 11 12 15 11 25 -5 13 -21 38
-27 26 -6 -4 7 -3 9 2 4 5 -5 9 -12 9 -15 0 -4 4 -14 10 -22 8 -13 7 -13 -8
-1 -9 7 -17 10 -17 5 0 -5 -7 2 -16 15 -13 18 -18 20 -25 10 -5 -8 -9 -18 -9
-24 0 -5 5 -3 10 5 9 13 11 13 19 0 5 -8 7 -19 3 -25 -3 -5 1 -5 9 2 11 9 18
8 33 -3 10 -7 23 -11 29 -7 6 3 7 1 3 -5 -4 -6 -14 -9 -24 -6 -14 5 -15 4 -2
-5 8 -6 24 -8 35 -6 11 3 15 2 8 -1 -14 -6 4 -54 21 -54 6 0 5 5 -2 12 -15 15
-15 28 -1 28 5 0 8 -4 4 -9 -7 -12 29 -33 39 -23 4 3 4 -2 0 -12 -5 -14 -9
-15 -15 -4 -5 7 -9 9 -9 3 0 -18 17 -38 24 -27 4 7 14 6 30 -1 15 -7 20 -14
13 -19 -6 -3 -17 1 -24 10 -11 16 -12 16 -13 1 0 -19 26 -33 42 -23 6 4 8 -1
4 -13 -5 -16 1 -24 29 -37 19 -9 40 -14 47 -10 7 5 8 3 4 -5 -5 -7 -14 -10
-22 -7 -8 3 -11 0 -7 -9 3 -8 9 -12 14 -9 13 8 53 14 46 7 -4 -3 1 -12 11 -19
9 -7 12 -14 7 -14 -11 0 -18 -40 -8 -40 3 0 12 8 19 18 13 16 14 16 7 -2 -5
-14 -3 -17 7 -11 9 5 11 4 6 -4 -4 -6 -12 -8 -18 -5 -7 5 -8 2 -3 -5 4 -8 18
-10 34 -7 14 3 20 3 14 0 -7 -3 -13 -10 -13 -15 0 -5 6 -8 13 -7 6 2 11 -3 9
-10 -1 -6 3 -12 9 -12 5 0 7 -5 4 -10 -9 -14 8 -12 25 3 8 6 6 2 -5 -11 -14
-17 -16 -23 -5 -20 9 2 14 -4 14 -14 -1 -10 3 -18 8 -18 6 0 8 11 6 24 -3 16
-1 23 8 19 6 -2 11 -19 10 -37 -1 -25 3 -33 14 -31 8 2 19 4 23 4 5 1 5 7 1
14 -6 9 -3 8 8 -1 10 -8 14 -20 11 -30 -6 -15 -4 -15 10 -4 14 12 16 11 12 -8
-3 -18 -2 -20 10 -10 17 14 20 24 5 15 -6 -3 -7 1 -4 9 5 14 8 13 23 -2 9 -10
15 -16 14 -13 -5 9 20 31 29 25 13 -8 49 26 41 40 -4 6 4 2 17 -9 l24 -20 -19
30 c-13 21 -14 26 -3 18 8 -7 19 -9 23 -5 5 4 5 2 1 -5 -3 -6 -1 -15 5 -19 7
-4 9 -3 6 3 -6 10 15 25 37 27 5 1 10 17 10 36 2 49 12 63 37 50 10 -6 19 -7
19 -3 0 4 5 1 10 -7 6 -10 8 -2 6 27 -3 36 1 45 22 59 13 9 22 12 18 6 -3 -5
1 -12 9 -16 8 -3 14 0 12 7 -1 7 6 11 17 10 13 -1 15 2 7 10 -6 6 -11 18 -11
27 1 12 3 11 11 -3 8 -14 14 -16 25 -6 7 6 11 15 8 20 -3 5 2 12 10 15 12 5
13 10 5 26 -8 15 -8 19 0 14 6 -4 14 0 17 9 4 9 13 14 21 10 12 -4 14 0 10 15
-3 11 0 23 5 27 6 3 8 1 5 -4 -4 -6 0 -13 7 -16 10 -4 13 0 11 14 -2 12 4 23
18 30 20 9 21 9 4 -4 -17 -14 -17 -15 0 -21 10 -4 14 -4 10 0 -4 4 -1 14 5 21
15 19 19 95 4 86 -6 -4 -4 2 4 12 9 11 10 16 3 11 -7 -4 -13 -2 -13 3 0 6 5
11 10 11 6 0 10 5 10 11 0 5 -5 7 -11 3 -7 -4 -7 1 1 16 6 12 9 24 6 28 -3 3
-6 1 -6 -4 0 -5 -9 -10 -20 -11 -20 -2 -20 -1 2 18 14 12 17 18 8 17 -8 -2
-14 3 -12 10 1 8 -2 11 -8 7 -5 -3 -10 2 -11 12 0 11 -3 13 -6 5 -3 -7 3 -22
13 -33 9 -10 14 -19 10 -19 -11 0 -36 27 -36 38 0 6 -6 13 -12 15 -10 4 -10 6
0 6 6 1 12 6 12 11 0 7 -6 7 -18 1 -20 -11 -52 2 -33 13 6 4 11 2 11 -5 0 -8
4 -8 15 1 8 7 15 18 15 24 0 6 -5 4 -11 -4 -8 -12 -12 -12 -16 -2 -4 10 -8 10
-19 1 -12 -10 -13 -8 -7 7 6 17 5 17 -10 5 -10 -8 -20 -11 -24 -7 -3 3 -1 6 5
6 7 0 12 7 12 16 0 8 4 13 8 10 5 -3 9 2 9 11 0 12 -5 11 -19 -7 -18 -22 -18
-22 -18 -1 0 12 4 21 8 21 5 0 9 7 9 16 0 13 -4 12 -16 -5 -11 -14 -20 -18
-31 -11 -8 5 -17 7 -20 5 -3 -2 -7 6 -7 17 -2 20 -1 20 13 2 9 -11 13 -12 9
-4 -4 8 0 7 9 -4 14 -18 15 -18 13 2 0 11 -5 18 -9 16 -5 -3 -22 8 -38 25 -19
22 -31 28 -36 20 -4 -7 -3 -9 2 -6 15 9 34 -27 23 -44 -8 -11 -9 -11 -7 3 2 9
-5 23 -16 31 -18 13 -18 14 0 31 17 18 17 18 -5 11 -14 -4 -21 -3 -18 2 3 5 1
15 -5 23 -8 12 -9 12 -4 -2 7 -23 0 -23 -27 3 -17 15 -18 19 -4 14 9 -4 17 -3
17 2 0 9 -6 11 -49 15 -15 2 -18 9 -15 33 3 22 1 26 -6 15 -9 -13 -10 -13 -11
0 -1 8 -1 18 0 23 0 4 -4 7 -10 7 -6 0 -8 -8 -4 -19 4 -12 0 -21 -11 -25 -14
-5 -15 -4 -4 9 12 14 7 20 -15 15 -5 -1 -1 9 10 22 19 22 19 22 1 8 -18 -13
-19 -13 -14 1 5 12 -1 15 -28 12 -25 -1 -33 1 -28 10 5 9 3 9 -7 0 -18 -17
-34 -17 -20 0 8 10 7 14 -4 14 -7 0 -13 -5 -12 -10 3 -14 -41 -28 -49 -15 -4
6 -3 8 2 5 6 -3 16 -2 23 3 9 5 3 7 -17 7 -17 -1 -28 -6 -24 -11 3 -5 -2 -7
-12 -3 -10 4 -15 3 -11 -4 8 -13 -14 -41 -26 -33 -5 3 -8 0 -7 -7 2 -6 -3 -14
-11 -17 -9 -3 -11 0 -6 8 5 9 4 11 -4 6 -6 -4 -9 -11 -6 -16 5 -9 -21 -28 -38
-28 -5 0 -11 -3 -14 -6 -3 -3 4 -4 15 -1 12 2 23 -3 26 -11 5 -12 1 -14 -15
-9 -15 5 -19 4 -15 -4 4 -6 2 -11 -3 -11 -6 0 -11 -7 -11 -15 0 -8 -5 -15 -11
-15 -5 0 -7 6 -4 13 4 6 0 3 -9 -7 -8 -10 -13 -23 -9 -29 3 -6 1 -7 -6 -3 -6
4 -9 11 -6 16 3 5 0 12 -6 16 -7 4 -9 3 -6 -3 4 -6 0 -16 -8 -23 -7 -6 -11
-18 -9 -25 7 -18 -29 -37 -60 -31 -17 3 -23 1 -20 -8 3 -8 -2 -16 -10 -19 -10
-4 -13 -1 -10 7 3 8 0 17 -6 21 -6 3 -9 1 -8 -6 2 -6 -3 -14 -11 -17 -10 -3
-12 0 -8 11 9 25 -8 29 -28 7 -10 -11 -23 -20 -29 -20 -7 0 -7 3 1 8 13 8 14
52 0 52 -5 0 -5 -10 -2 -22 4 -16 3 -19 -3 -9 -8 11 -11 11 -16 0 -3 -8 -3 -4
0 8 11 46 13 63 6 62 -19 -3 -30 3 -36 17 -5 14 -4 15 8 5 11 -9 16 -9 22 0 4
8 3 9 -4 5 -10 -6 -17 6 -10 17 1 1 -4 12 -10 24 -10 18 -9 20 6 16 10 -2 25
4 33 14 13 16 13 17 -4 4 -16 -12 -17 -11 -14 10 2 13 13 29 25 35 12 6 18 15
14 20 -4 5 4 -2 16 -16 23 -24 24 -25 12 -2 -11 22 -10 23 12 17 22 -7 22 -7
3 8 -11 8 -24 13 -29 10 -5 -4 -6 -1 -2 5 5 9 13 9 26 2 13 -7 21 -7 26 2 4 6
3 8 -3 5 -6 -4 -16 0 -23 8 -11 13 -10 14 5 9 13 -5 16 -4 11 4 -5 8 -1 10 11
5 15 -5 16 -3 6 8 -16 16 -17 29 -2 29 5 0 8 -3 6 -7 -3 -5 2 -14 11 -22 13
-13 14 -11 9 15 -5 27 -4 27 9 9 13 -18 14 -17 14 8 0 15 5 27 11 27 5 0 8 -4
5 -8 -3 -5 1 -9 9 -9 8 0 12 4 9 8 -2 4 1 9 8 11 7 3 5 7 -6 11 -10 4 -15 3
-11 -3 3 -6 -1 -7 -10 -4 -12 5 -9 11 17 31 18 13 33 29 34 36 3 32 5 37 15
37 8 0 7 -5 -1 -15 -7 -9 -10 -18 -7 -22 4 -3 2 -12 -4 -20 -9 -9 -8 -13 0
-13 6 0 11 3 12 8 0 4 2 14 4 22 11 38 9 55 -3 52 -8 -1 -11 2 -7 8 3 6 10 8
15 5 5 -3 12 0 16 6 4 8 3 9 -4 5 -6 -3 -16 3 -22 15 -9 16 -8 24 4 38 15 17
15 19 -1 32 -16 13 -17 12 -4 -3 9 -12 10 -18 2 -18 -17 0 -25 28 -12 43 8 10
7 14 -4 14 -8 0 -12 -4 -9 -9 3 -4 1 -8 -5 -8 -6 0 -8 -7 -4 -16 4 -12 -2 -10
-20 7 -28 24 -38 41 -12 19 9 -7 19 -10 22 -6 4 4 1 11 -6 15 -11 7 -11 10 0
15 8 3 3 3 -11 -1 -22 -5 -23 -4 -11 11 14 17 9 31 -12 31 -7 1 -11 5 -10 11
1 5 -8 11 -20 11 -20 2 -21 1 -5 -11 10 -7 15 -16 11 -19 -3 -4 4 -5 16 -2 11
2 21 0 21 -6 0 -13 -43 -5 -48 9 -2 7 -8 10 -13 6 -5 -3 -9 -2 -8 3 4 23 -2
53 -11 53 -5 0 -6 -8 -3 -17 6 -15 5 -16 -9 -3 -9 8 -12 16 -7 18 4 2 0 13
-11 25 -15 16 -17 23 -8 30 8 5 4 6 -11 2 -17 -5 -22 -4 -16 5 5 9 4 11 -3 6
-6 -4 -24 0 -39 8 -16 8 -22 15 -14 16 11 0 9 4 -5 14 -10 8 -16 18 -11 22 4
4 7 2 7 -4 0 -7 4 -12 9 -12 8 0 8 8 2 39 -1 2 -7 -2 -14 -8 -8 -6 -17 -8 -21
-4 -4 4 -4 -1 -1 -12 6 -19 6 -19 -6 0 -16 25 -21 47 -8 39 5 -3 7 -10 4 -15
-3 -5 1 -6 10 -3 14 6 13 8 -4 20 -11 8 -27 11 -38 7 -16 -6 -17 -5 -3 12 9
11 10 16 3 11 -16 -9 -17 6 -1 22 7 7 8 12 4 12 -4 0 -17 -10 -28 -22 -11 -13
-16 -17 -12 -9 5 10 3 13 -9 8 -12 -4 -14 -2 -10 10 5 12 3 14 -7 8 -9 -6 -11
-4 -5 5 6 9 4 12 -7 8 -8 -4 -15 -1 -15 7 0 16 28 7 44 -14 6 -9 15 -13 19 -8
4 4 2 7 -5 7 -7 0 -10 4 -6 9 3 5 -4 12 -15 16 -11 4 -18 10 -15 15 3 5 -47 8
-111 8 -64 0 -112 -3 -107 -7z m33 -11 c0 -5 -5 -10 -11 -10 -5 0 -7 5 -4 10
3 6 8 10 11 10 2 0 4 -4 4 -10z m-160 -194 c0 -3 -4 -8 -10 -11 -5 -3 -10 -1
-10 4 0 6 5 11 10 11 6 0 10 -2 10 -4z m-60 -36 c0 -5 -5 -10 -11 -10 -5 0 -7
5 -4 10 3 6 8 10 11 10 2 0 4 -4 4 -10z m622 -5 c0 -5 -5 -10 -11 -11 -8 -2
-7 -1 0 3 8 4 7 8 -2 15 -11 8 -11 9 -1 6 8 -2 14 -8 14 -13z m-668 -66 c4 -4
-4 -6 -18 -6 -21 0 -24 2 -15 13 7 8 15 11 18 7 3 -4 10 -11 15 -14z m-127
-265 c-3 -3 -12 -4 -19 -1 -8 3 -5 6 6 6 11 1 17 -2 13 -5z m-257 -200 c0 -8
-19 -13 -24 -6 -3 5 1 9 9 9 8 0 15 -2 15 -3z m441 -17 c-10 -9 -11 -8 -5 6 3
10 9 15 12 12 3 -3 0 -11 -7 -18z m1012 -1 c4 -10 1 -13 -8 -9 -8 3 -12 9 -9
14 7 12 11 11 17 -5z m-26 -35 c-1 -15 -5 -17 -13 -10 -9 7 -16 5 -23 -8 -6
-10 -11 -14 -11 -9 0 12 30 46 41 46 4 0 7 -9 6 -19z m-65 -43 c-7 -7 -12 -8
-12 -2 0 6 3 14 7 17 3 4 9 5 12 2 2 -3 -1 -11 -7 -17z m-862 -2 c0 -2 -8 -10
-17 -17 -16 -13 -17 -12 -4 4 13 16 21 21 21 13z m-304 -58 c4 -7 3 -8 -4 -4
-7 4 -12 2 -12 -5 0 -7 -3 -10 -6 -6 -6 5 3 27 11 27 2 0 7 -5 11 -12z m1131
-3 c0 -8 -4 -12 -9 -9 -4 3 -8 9 -8 15 0 5 4 9 8 9 5 0 9 -7 9 -15z m418 -15
c3 -6 -1 -7 -9 -4 -18 7 -21 14 -7 14 6 0 13 -4 16 -10z m-731 -9 c3 -5 -2
-15 -12 -22 -15 -12 -16 -12 -5 2 7 9 10 19 6 22 -3 4 -4 7 0 7 3 0 8 -4 11
-9z m236 -11 c0 -5 -5 -10 -11 -10 -5 0 -7 5 -4 10 3 6 8 10 11 10 2 0 4 -4 4
-10z m-65 -68 c-3 -3 -11 0 -18 7 -9 10 -8 11 6 5 10 -3 15 -9 12 -12z m-1562
-18 c-7 -3 -9 -13 -6 -22 4 -14 3 -14 -5 -2 -12 16 -7 30 11 29 9 0 9 -2 0 -5z
m1227 -174 c0 -5 -5 -10 -11 -10 -5 0 -7 5 -4 10 3 6 8 10 11 10 2 0 4 -4 4
-10z m35 -11 c-4 -5 -12 -9 -18 -8 -9 0 -8 2 1 6 6 2 9 10 6 15 -4 7 -2 8 5 4
6 -4 9 -12 6 -17z m-251 -10 c-3 -5 -10 -7 -15 -3 -5 3 -7 10 -3 15 3 5 10 7
15 3 5 -3 7 -10 3 -15z m-142 -99 c-12 -10 -19 -20 -16 -23 3 -3 -11 -17 -30
-32 -20 -15 -34 -30 -32 -34 2 -3 -8 -7 -22 -8 l-27 -1 24 13 c13 7 20 14 15
17 -5 3 -4 3 3 2 7 -2 15 1 18 6 4 6 0 10 -7 11 -10 0 -10 2 0 6 6 2 9 10 6
16 -5 8 -2 8 7 0 18 -18 30 -16 23 2 -4 8 -1 15 6 15 6 0 8 5 5 10 -4 6 -3 10
2 9 21 -4 34 2 27 13 -5 7 -3 8 6 3 10 -6 8 -12 -8 -25z m1535 -5 c0 -8 -4
-12 -9 -9 -5 3 -6 10 -3 15 9 13 12 11 12 -6z m-2542 -32 c-2 -10 -4 -19 -4
-21 -1 -2 -6 0 -11 3 -8 5 -7 11 1 21 15 18 18 18 14 -3z m884 -77 c7 -8 8
-17 3 -20 -6 -3 -12 3 -15 14 -6 24 -4 25 12 6z m792 -19 c-10 -9 -11 -8 -5 6
3 10 9 15 12 12 3 -3 0 -11 -7 -18z m731 -20 c-7 -8 -9 -16 -6 -19 3 -3 -1 -9
-8 -14 -7 -4 -10 -4 -6 1 4 4 3 16 -3 26 -8 15 -6 17 8 12 13 -5 15 -3 9 13
-6 15 -5 16 5 7 9 -9 9 -16 1 -26z m-2282 -1 c0 -2 -7 -7 -16 -10 -8 -3 -12
-2 -9 4 6 10 25 14 25 6z m1577 -9 c2 -3 -3 -7 -11 -10 -8 -3 -20 0 -26 8 -10
12 -8 13 10 10 13 -2 25 -6 27 -8z m-1507 -79 c0 6 4 12 9 12 5 0 7 -10 4 -21
-5 -19 -4 -20 16 -10 11 7 21 8 21 3 0 -6 -9 -12 -19 -15 -19 -5 -51 20 -51
39 0 5 5 2 10 -6 6 -10 10 -11 10 -2z m522 -63 c-3 -5 -7 -4 -10 3 -2 7 -8 10
-13 7 -5 -4 -6 1 -3 9 5 12 9 13 19 3 7 -7 10 -16 7 -22z m1562 14 c-3 -5 -10
-7 -15 -3 -5 3 -7 10 -3 15 3 5 10 7 15 3 5 -3 7 -10 3 -15z m-77 -53 c-3 -7
-1 -19 4 -25 5 -6 6 -9 3 -6 -4 3 -13 0 -20 -6 -9 -7 -18 -7 -31 0 -13 9 -14
11 -3 10 26 -2 40 1 39 9 -3 15 1 32 7 32 3 0 4 -6 1 -14z m-1560 -3 c-4 -3
-1 -13 5 -22 10 -13 10 -14 -1 -4 -7 6 -21 9 -30 6 -11 -4 -10 -1 4 10 20 16
34 23 22 10z m-64 -78 c-10 -13 -20 -21 -22 -19 -2 2 3 12 12 22 10 10 14 22
10 27 -5 4 -2 5 5 1 9 -6 8 -13 -5 -31z m1364 -7 c-3 -8 -6 -5 -6 6 -1 11 2
17 5 13 3 -3 4 -12 1 -19z m-1517 -8 c0 -5 -5 -10 -11 -10 -5 0 -7 5 -4 10 3
6 8 10 11 10 2 0 4 -4 4 -10z"/>
<path d="M1156 2567 c3 -10 9 -15 12 -12 3 3 0 11 -7 18 -10 9 -11 8 -5 -6z"/>
<path d="M1073 2485 c0 -8 4 -12 9 -9 5 3 6 10 3 15 -9 13 -12 11 -12 -6z"/>
<path d="M1553 2415 c0 -18 24 -28 33 -13 4 7 3 8 -4 4 -7 -4 -12 -1 -12 8 0
9 -4 16 -8 16 -5 0 -9 -7 -9 -15z"/>
<path d="M1645 2359 c-4 -6 -5 -12 -2 -15 2 -3 7 2 10 11 7 17 1 20 -8 4z"/>
<path d="M856 2277 c3 -10 9 -15 12 -12 3 3 0 11 -7 18 -10 9 -11 8 -5 -6z"/>
<path d="M1810 2121 c0 -6 4 -12 8 -15 5 -3 9 1 9 9 0 8 -4 15 -9 15 -4 0 -8
-4 -8 -9z"/>
<path d="M1691 1844 c0 -11 3 -14 6 -6 3 7 2 16 -1 19 -3 4 -6 -2 -5 -13z"/>
<path d="M1585 1779 c-3 -4 2 -6 10 -5 21 3 28 13 10 13 -9 0 -18 -4 -20 -8z"/>
<path d="M1017 1736 c-4 -10 -1 -13 8 -9 8 3 12 9 9 14 -7 12 -11 11 -17 -5z"/>
<path d="M2230 1736 c0 -2 7 -7 16 -10 8 -3 12 -2 9 4 -6 10 -25 14 -25 6z"/>
<path d="M1563 1705 c0 -8 4 -12 9 -9 5 3 6 10 3 15 -9 13 -12 11 -12 -6z"/>
<path d="M1835 1690 c3 -5 8 -10 11 -10 2 0 4 5 4 10 0 6 -5 10 -11 10 -5 0
-7 -4 -4 -10z"/>
<path d="M2375 1620 c3 -5 8 -10 11 -10 2 0 4 5 4 10 0 6 -5 10 -11 10 -5 0
-7 -4 -4 -10z"/>
<path d="M1756 1607 c3 -10 9 -15 12 -12 3 3 0 11 -7 18 -10 9 -11 8 -5 -6z"/>
<path d="M1000 1595 c0 -8 4 -15 10 -15 5 0 7 7 4 15 -4 8 -8 15 -10 15 -2 0
-4 -7 -4 -15z"/>
<path d="M136 1557 c3 -10 9 -15 12 -12 3 3 0 11 -7 18 -10 9 -11 8 -5 -6z"/>
<path d="M125 1521 c-3 -5 -2 -12 3 -15 5 -3 9 1 9 9 0 17 -3 19 -12 6z"/>
<path d="M1377 1329 c7 -7 15 -10 18 -7 3 3 -2 9 -12 12 -14 6 -15 5 -6 -5z"/>
<path d="M1142 1309 c-14 -22 -7 -25 14 -5 8 8 11 17 6 20 -4 2 -13 -4 -20
-15z"/>
<path d="M1535 1200 c3 -5 8 -10 11 -10 2 0 4 5 4 10 0 6 -5 10 -11 10 -5 0
-7 -4 -4 -10z"/>
<path d="M1595 1151 c-3 -5 -2 -12 3 -15 5 -3 9 1 9 9 0 17 -3 19 -12 6z"/>
<path d="M2490 1125 c-8 -9 -8 -15 0 -20 6 -4 10 -3 9 2 -3 18 2 27 9 16 4 -7
13 -9 21 -4 9 6 7 10 -8 14 -11 3 -25 -1 -31 -8z"/>
<path d="M109 1127 c-8 -22 -4 -35 9 -33 22 4 26 22 7 29 -8 4 -15 5 -16 4z"/>
<path d="M1312 1046 c7 -8 15 -12 17 -11 5 6 -10 25 -20 25 -5 0 -4 -6 3 -14z"/>
<path d="M1337 1040 c-5 -20 -8 -21 -22 -10 -8 7 -27 14 -40 16 -20 2 -25 -2
-26 -19 l0 -22 -11 23 c-6 12 -15 22 -20 22 -5 0 -6 -6 -1 -12 12 -21 12 -36
-2 -48 -8 -7 -15 -7 -19 -1 -4 5 -2 12 4 16 5 3 10 12 10 18 0 7 -6 4 -14 -5
-7 -10 -17 -14 -21 -10 -4 4 -2 -4 4 -16 7 -13 10 -26 7 -30 -11 -10 -37 -11
-30 -1 3 5 10 7 15 4 5 -4 6 2 2 11 -4 11 -8 13 -11 6 -2 -7 -7 -10 -12 -7 -5
3 -7 -6 -6 -19 3 -20 -1 -24 -18 -22 -12 1 -27 5 -33 9 -6 4 -15 2 -19 -5 -4
-7 -3 -10 1 -5 5 4 17 -1 28 -10 12 -11 17 -12 12 -4 -5 10 -4 12 4 7 6 -4 9
-12 5 -17 -3 -5 -10 -6 -16 -3 -7 5 -9 2 -6 -8 4 -8 2 -21 -3 -29 -7 -12 -9
-12 -10 1 -1 8 -1 18 -1 22 1 3 -5 9 -13 12 -9 3 -12 0 -9 -8 3 -8 0 -17 -6
-21 -8 -5 -8 -10 0 -20 8 -10 8 -15 -1 -21 -7 -4 -9 -3 -5 4 3 6 2 13 -3 16
-5 4 -12 -3 -16 -14 -3 -11 -11 -20 -16 -20 -6 0 -5 9 2 23 l11 22 -22 -23
c-18 -19 -20 -26 -10 -35 10 -9 11 -9 6 0 -5 9 -2 11 8 7 9 -3 16 -11 16 -17
0 -6 -3 -7 -7 -4 -3 4 -13 1 -21 -6 -10 -8 -13 -8 -9 -1 4 7 0 14 -8 17 -9 4
-12 1 -8 -9 7 -19 -17 -15 -35 6 -11 13 -11 11 -2 -7 10 -21 7 -27 -13 -24 -4
0 -6 -2 -6 -6 1 -5 1 -15 0 -23 -1 -13 -2 -13 -11 0 -13 21 -13 3 1 -22 8 -15
8 -19 0 -14 -6 4 -11 2 -11 -4 0 -6 -5 -8 -10 -5 -6 4 -7 12 -4 18 5 9 3 9 -6
0 -11 -10 -11 -15 1 -29 9 -12 10 -15 2 -10 -7 4 -14 2 -14 -3 -1 -6 -2 -17
-3 -23 0 -7 -13 -13 -28 -12 -27 0 -27 -1 -10 -20 17 -20 17 -20 -10 -3 -23
14 -26 15 -22 2 5 -11 1 -14 -12 -9 -15 5 -16 4 -5 -4 8 -6 21 -8 30 -5 12 3
12 2 -2 -7 -9 -6 -14 -16 -11 -22 4 -7 2 -8 -5 -4 -6 4 -8 13 -5 19 4 7 3 8
-2 4 -15 -14 -11 -31 9 -43 17 -10 18 -12 3 -17 -10 -4 -15 -3 -11 3 3 6 1 10
-4 10 -17 0 -13 -27 5 -34 8 -3 12 -11 8 -17 -3 -6 0 -16 7 -21 12 -8 11 -9
-1 -5 -8 2 -14 12 -14 21 1 9 -2 16 -7 16 -12 0 -11 -17 1 -40 6 -10 18 -17
28 -15 12 2 18 -3 19 -18 0 -12 -1 -16 -4 -9 -3 6 -10 9 -15 6 -7 -4 -8 -2 -4
4 5 8 1 10 -10 5 -14 -5 -12 -8 9 -20 30 -15 53 -50 48 -73 -2 -8 0 -12 3 -9
10 9 16 50 7 45 -13 -8 -30 30 -20 45 8 12 9 11 7 -2 -2 -8 11 -27 27 -42 25
-21 28 -28 17 -39 -11 -11 -12 -10 -6 7 4 12 3 17 -2 12 -5 -5 -9 -20 -9 -34
-1 -21 1 -22 11 -9 13 18 44 22 44 5 0 -5 -4 -8 -9 -5 -5 3 -14 -1 -21 -9 -10
-12 -8 -14 7 -10 10 2 25 6 34 10 10 3 20 2 24 -4 4 -7 0 -8 -11 -4 -13 5 -15
3 -9 -7 5 -8 4 -11 -2 -7 -6 4 -17 -1 -24 -10 -12 -14 -12 -16 1 -8 8 5 26 9
40 9 22 0 25 -4 24 -31 -2 -26 1 -29 11 -20 7 7 11 15 9 18 -2 3 3 6 11 6 8 0
12 -4 9 -8 -2 -4 4 -12 13 -18 10 -6 12 -11 6 -11 -7 0 -13 -8 -13 -17 0 -15
2 -16 10 -3 8 13 10 12 10 -2 0 -17 10 -22 37 -19 19 2 24 -15 12 -45 -5 -16
-7 -25 -3 -21 7 7 41 -32 37 -44 -1 -3 13 -5 30 -4 44 1 57 -4 50 -21 -6 -17
-24 -19 -19 -1 1 6 1 9 -1 4 -3 -4 -8 -5 -13 -2 -5 3 -7 -3 -6 -12 3 -16 17
-18 119 -20 99 -2 115 0 110 12 -4 11 0 14 13 9 15 -5 16 -4 4 5 -11 7 -19 6
-32 -6 -11 -10 -18 -12 -18 -5 0 7 5 12 11 12 5 0 7 5 3 12 -5 7 -3 8 6 3 10
-6 12 -4 6 10 -6 16 -4 16 11 4 15 -12 16 -12 11 2 -5 12 -1 15 18 11 13 -2
21 -9 17 -15 -3 -6 -1 -7 5 -3 17 10 3 36 -16 29 -14 -4 -15 -3 -2 5 9 7 18 7
26 1 16 -13 36 12 24 31 -10 16 26 64 41 54 10 -6 30 31 21 40 -3 4 2 4 12 0
12 -5 14 -9 6 -14 -8 -5 -6 -9 6 -14 10 -4 15 -4 12 0 -13 12 12 44 30 38 14
-5 15 -4 2 5 -9 6 -18 7 -24 1 -6 -6 -14 -10 -19 -10 -5 0 -2 7 6 15 8 8 25
12 38 10 24 -4 24 -4 4 12 -20 15 -20 15 3 10 20 -5 23 -2 19 14 -3 10 -1 22
4 25 5 3 7 10 4 15 -4 5 -1 9 5 9 7 0 10 -6 7 -14 -3 -8 2 -16 14 -19 16 -4
17 -2 9 14 -8 14 -5 23 12 39 12 11 28 18 34 16 7 -3 15 2 18 10 3 9 9 13 14
10 4 -2 8 5 9 17 l1 22 -15 -23 c-8 -12 -20 -22 -25 -22 -5 0 -2 7 6 16 9 8
13 21 9 27 -3 7 -3 9 2 5 4 -4 14 -3 21 3 8 7 14 6 20 -2 5 -8 3 -10 -7 -4 -8
5 -10 4 -6 0 4 -5 15 -10 24 -11 12 -2 13 0 4 9 -16 16 -14 32 2 18 10 -8 14
-7 14 4 0 8 -4 12 -8 9 -4 -2 -10 0 -14 6 -3 5 1 10 9 10 8 0 18 5 22 12 4 7
3 8 -4 4 -7 -4 -20 -2 -29 4 -16 11 -16 11 -1 6 10 -3 20 -1 23 4 4 6 0 10 -7
10 -9 0 -9 3 2 10 8 5 10 10 4 10 -7 0 -14 9 -17 20 -6 25 10 27 17 3 2 -10 3
-3 1 15 -5 47 -22 64 -47 51 -12 -6 -18 -7 -14 -1 3 5 -1 15 -10 22 -8 7 -13
19 -10 27 4 9 1 11 -6 7 -8 -5 -9 -2 -5 10 4 10 1 19 -9 23 -13 5 -13 8 -2 15
10 8 10 9 -2 5 -24 -7 -50 11 -44 31 5 14 4 15 -5 2 -12 -17 9 -45 40 -55 15
-5 16 -9 6 -20 -10 -11 -14 -9 -25 11 -7 14 -17 22 -23 19 -5 -4 -8 -1 -7 6 2
7 -2 13 -9 14 -6 0 -15 4 -20 9 -4 5 -4 7 2 3 6 -3 15 5 21 18 11 23 11 23
-35 20 -25 -1 -39 0 -31 3 16 5 30 22 30 35 0 5 -7 2 -15 -7 -14 -13 -45 -13
-45 1 0 3 6 3 14 0 17 -7 30 20 14 29 -7 4 -8 3 -4 -4 4 -7 2 -12 -3 -12 -6 0
-11 6 -11 13 0 9 -2 9 -9 -1 -7 -11 -9 -10 -15 3 -3 9 -10 14 -15 10 -5 -3
-13 0 -17 6 -4 7 -3 9 3 6 6 -4 16 0 23 9 11 13 10 14 -11 11 -30 -6 -78 27
-53 37 10 4 13 2 8 -6 -4 -7 -3 -8 5 -4 6 4 9 12 5 17 -3 5 -10 6 -16 3 -7 -5
-9 -1 -5 9 3 9 1 19 -5 23 -6 4 -8 3 -4 -4 3 -6 2 -13 -4 -17 -5 -3 -10 1 -10
9 0 17 -10 20 -26 9 -5 -5 0 1 11 11 17 16 17 18 3 13 -53 -20 -54 -20 -33 -3
11 10 14 15 8 11 -7 -3 -13 -2 -13 3 0 5 -9 19 -20 32 -24 28 -26 19 -4 -18
11 -18 12 -22 2 -10 -8 10 -19 14 -23 10 -5 -4 -6 -2 -3 3 3 6 2 19 -2 29 -6
19 -7 18 -13 -4z m-36 -17 c13 -16 12 -17 -3 -5 -9 8 -23 10 -29 6 -8 -4 -9
-3 -5 4 10 17 21 15 37 -5z m-327 -264 c-3 -5 -10 -7 -15 -4 -5 4 -10 1 -10
-4 -1 -6 -2 -15 -3 -21 0 -5 -5 -9 -11 -7 -12 3 -8 17 12 39 16 18 38 15 27
-3z m676 17 c0 -2 -7 -7 -16 -10 -8 -3 -12 -2 -9 4 6 10 25 14 25 6z m155
-176 c-3 -4 1 -11 7 -13 8 -4 7 -6 -3 -6 -17 -1 -32 22 -22 33 8 8 24 -4 18
-14z m-676 -477 c-4 -25 3 -35 21 -30 10 3 24 -1 31 -9 6 -8 10 -14 8 -15 -32
-6 -42 -4 -59 18 -22 28 -25 43 -10 43 6 0 9 -3 9 -7z m341 -3 c0 -5 -5 -10
-11 -10 -5 0 -7 5 -4 10 3 6 8 10 11 10 2 0 4 -4 4 -10z"/>
<path d="M1156 82 c-3 -5 1 -9 9 -9 8 0 12 4 9 9 -3 4 -7 8 -9 8 -2 0 -6 -4
-9 -8z"/>
<path d="M1715 1031 c-3 -5 -2 -12 3 -15 5 -3 9 1 9 9 0 17 -3 19 -12 6z"/>
<path d="M1776 1012 c-3 -5 1 -15 9 -22 16 -14 10 -34 -7 -24 -7 4 -8 2 -4 -5
10 -16 35 4 32 25 -3 21 -22 38 -30 26z"/>
<path d="M805 1000 c-3 -5 -1 -10 5 -10 6 0 8 -5 4 -12 -4 -7 -3 -8 4 -4 6 4
9 13 5 21 -6 18 -10 19 -18 5z"/>
<path d="M2361 1002 c0 -7 -5 -11 -9 -8 -5 3 -9 -1 -9 -8 0 -14 32 -15 44 -1
5 4 3 5 -4 1 -6 -3 -13 1 -16 11 -3 10 -5 12 -6 5z"/>
<path d="M1115 960 c-3 -5 -1 -10 4 -10 6 0 11 5 11 10 0 6 -2 10 -4 10 -3 0
-8 -4 -11 -10z"/>
<path d="M263 937 c-3 -7 -3 -9 2 -5 4 4 14 3 21 -3 8 -7 14 -7 19 1 3 5 5 10
3 11 -27 6 -39 5 -45 -4z"/>
<path d="M1816 927 c3 -10 9 -15 12 -12 3 3 0 11 -7 18 -10 9 -11 8 -5 -6z"/>
<path d="M2279 935 c0 -6 -2 -18 -4 -27 -2 -10 0 -18 5 -18 13 0 21 33 10 44
-6 6 -10 6 -11 1z"/>
<path d="M1507 916 c-12 -9 -14 -16 -8 -21 6 -3 11 -1 11 5 0 6 4 9 8 6 5 -3
9 1 9 9 0 8 -1 15 -1 15 -1 0 -9 -7 -19 -14z"/>
<path d="M1034 890 c0 -13 4 -16 10 -10 7 7 7 13 0 20 -6 6 -10 3 -10 -10z"/>
<path d="M1879 908 c-6 -21 -5 -38 1 -38 5 0 8 9 7 20 -1 17 -5 26 -8 18z"/>
<path d="M1573 875 c0 -8 4 -12 9 -9 5 3 6 10 3 15 -9 13 -12 11 -12 -6z"/>
<path d="M1545 860 c3 -5 8 -10 11 -10 2 0 4 5 4 10 0 6 -5 10 -11 10 -5 0 -7
-4 -4 -10z"/>
<path d="M363 849 c9 -6 15 -14 12 -19 -3 -5 -1 -11 4 -14 5 -4 12 -2 15 3 7
11 -20 41 -37 41 -7 0 -4 -5 6 -11z"/>
<path d="M2149 793 c-13 -14 -19 -23 -12 -20 6 4 14 1 17 -5 3 -7 4 -4 3 6 -1
10 4 21 11 23 8 3 10 -2 6 -14 -5 -14 -4 -15 4 -4 8 11 6 41 -2 41 -2 0 -13
-12 -27 -27z"/>
<path d="M1999 783 c-13 -16 -12 -17 4 -4 9 7 17 15 17 17 0 8 -8 3 -21 -13z"/>
<path d="M526 774 c-10 -7 -13 -15 -8 -18 6 -3 12 1 16 9 3 8 12 12 21 9 8 -3
15 -2 15 3 0 14 -24 12 -44 -3z"/>
<path d="M843 667 c-8 -17 -8 -24 0 -24 7 0 13 11 13 24 2 29 0 29 -13 0z"/>
<path d="M810 659 c0 -5 5 -7 10 -4 6 3 10 8 10 11 0 2 -4 4 -10 4 -5 0 -10
-5 -10 -11z"/>
<path d="M1762 661 c-10 -6 -10 -10 3 -21 13 -11 14 -10 9 5 -6 14 -4 16 6 10
9 -5 11 -4 6 3 -8 14 -7 14 -24 3z"/>
<path d="M775 400 c3 -5 8 -10 11 -10 2 0 4 5 4 10 0 6 -5 10 -11 10 -5 0 -7
-4 -4 -10z"/>
<path d="M810 380 c0 -5 5 -10 11 -10 5 0 7 5 4 10 -3 6 -8 10 -11 10 -2 0 -4
-4 -4 -10z"/>
<path d="M1704 339 c-14 -15 -15 -20 -4 -17 9 2 14 -3 12 -12 -3 -13 -1 -13
10 -1 10 11 10 14 0 18 -6 3 -10 9 -6 14 3 5 13 5 24 -1 13 -7 21 -7 26 2 4 7
4 10 -1 6 -4 -4 -15 -3 -25 2 -13 7 -22 4 -36 -11z"/>
<path d="M1660 284 c8 -10 15 -20 16 -22 1 -2 4 1 7 5 3 5 -4 15 -16 23 -21
12 -21 12 -7 -6z"/>
<path d="M962 261 c-11 -7 -11 -9 0 -14 9 -3 15 1 15 9 0 8 -1 14 -1 14 -1 0
-7 -4 -14 -9z"/>
<path d="M1007 223 c-2 -5 -1 -17 3 -27 6 -19 7 -19 12 2 6 21 -6 40 -15 25z"/>
<path d="M1545 170 c-8 -13 9 -20 24 -11 10 6 9 10 -3 14 -8 3 -18 2 -21 -3z"/>
<path d="M1020 166 c0 -2 7 -6 15 -10 8 -3 15 -1 15 4 0 6 -7 10 -15 10 -8 0
-15 -2 -15 -4z"/>
<path d="M1506 151 c-13 -14 -14 -21 -5 -27 7 -4 10 -3 6 3 -4 6 0 13 8 17 8
3 15 0 15 -6 0 -6 3 -9 6 -5 3 3 2 13 -3 22 -8 14 -11 14 -27 -4z"/>
<path d="M1063 144 c0 -15 30 -11 35 4 2 6 -5 10 -16 9 -10 0 -19 -6 -19 -13z"/>
</g>
</svg>
